<svg width="120" height="120" viewBox="0 0 120 120" fill="none" xmlns="http://www.w3.org/2000/svg">
<path d="M65 10.15V20.25C86.95 22.95 102.5 42.9 99.8 64.85C97.5 83.05 83.2 97.5 65 99.65V109.65C92.5 106.9 112.5 82.5 109.75 55C107.5 31.25 88.65 12.5 65 10.15ZM55 10.3C45.25 11.25 35.95 15 28.35 21.3L35.5 28.7C41.1 24.2 47.85 21.3 55 20.3V10.3ZM21.3 28.35C15.0522 35.9391 11.2055 45.2165 10.25 55H20.25C21.2 47.9 24 41.15 28.45 35.5L21.3 28.35ZM77.5 42.5L53.1 66.9L42.5 56.3L37.2 61.6L53.1 77.5L82.8 47.8L77.5 42.5ZM10.3 65C11.3 74.8 15.15 84.05 21.35 91.65L28.45 84.5C24.0342 78.8482 21.2193 72.1131 20.3 65H10.3ZM35.5 91.85L28.35 98.7C35.9248 105.012 45.1968 108.943 55 110V100C47.8869 99.0807 41.1518 96.2658 35.5 91.85Z" fill="#D6DF22"/>
</svg>
